<?xml version="1.0" encoding="utf-8"?><!DOCTYPE svg PUBLIC "-//W3C//DTD SVG 1.0//EN" "http://www.w3.org/TR/2001/REC-SVG-20010904/DTD/svg10.dtd"><svg version="1.0" id="ТЕКСТ" xmlns="http://www.w3.org/2000/svg" xmlns:xlink="http://www.w3.org/1999/xlink" x="0px" y="0px" viewBox="0 0 161.82 46.634" enable-background="new 0 0 161.82 46.634" xml:space="preserve"><g><g><path fill="#2D4F5B" d="M0.599,41.458h0.264c0.12,0,0.162,0.042,0.162,0.156v3.946c0,0.114-0.042,0.156-0.162,0.156H0.599c-0.114,0-0.156-0.042-0.156-0.156v-3.946C0.443,41.5,0.485,41.458,0.599,41.458z"/><path fill="#2D4F5B" d="M5.122,41.614v3.946c0,0.114-0.036,0.156-0.156,0.156H4.702c-0.12,0-0.156-0.042-0.156-0.156v-1.733H2.495v1.733c0,0.114-0.042,0.156-0.162,0.156H2.069c-0.114,0-0.156-0.042-0.156-0.156v-3.946c0-0.114,0.042-0.156,0.156-0.156h0.264c0.12,0,0.162,0.042,0.162,0.156v1.673h2.051v-1.673c0-0.114,0.036-0.156,0.156-0.156h0.264C5.085,41.458,5.122,41.5,5.122,41.614z"/><path fill="#2D4F5B" d="M9.291,41.614v3.562h0.348c0.12,0,0.156,0.042,0.156,0.156v1.146c0,0.114-0.036,0.156-0.156,0.156H9.388c-0.12,0-0.162-0.042-0.162-0.156v-0.762H6.234v0.762c0,0.114-0.036,0.156-0.156,0.156H5.826c-0.12,0-0.156-0.042-0.156-0.156v-1.146c0-0.114,0.036-0.156,0.156-0.156h0.18c0.264-0.18,0.588-0.564,0.588-2.333v-1.229c0-0.114,0.042-0.156,0.156-0.156H9.13C9.249,41.458,9.291,41.5,9.291,41.614z M7.151,42.843c0,1.481-0.222,2.021-0.462,2.333H8.71v-3.178h-1.56V42.843z"/><path fill="#2D4F5B" d="M13.641,41.614v3.946c0,0.114-0.035,0.156-0.155,0.156h-0.264c-0.12,0-0.156-0.042-0.156-0.156v-2.087c0-0.57,0.024-0.81,0.107-1.29H13.15c-0.186,0.42-0.33,0.654-0.618,1.098l-1.589,2.356c-0.042,0.06-0.078,0.078-0.162,0.078h-0.27c-0.114,0-0.156-0.042-0.156-0.156v-3.946c0-0.114,0.042-0.156,0.156-0.156h0.264c0.12,0,0.162,0.042,0.162,0.156v2.045c0,0.576-0.03,0.839-0.107,1.331h0.018c0.198-0.432,0.359-0.708,0.653-1.151l1.56-2.303c0.03-0.048,0.072-0.078,0.155-0.078h0.271C13.606,41.458,13.641,41.5,13.641,41.614z"/><path fill="#2D4F5B" d="M17.559,42.562c0,0.462-0.168,0.768-0.516,0.936v0.018c0.426,0.126,0.672,0.486,0.672,1.043c0,0.75-0.527,1.157-1.295,1.157h-1.733c-0.114,0-0.156-0.042-0.156-0.156v-3.946c0-0.114,0.042-0.156,0.156-0.156h1.679C17.116,41.458,17.559,41.848,17.559,42.562z M16.3,41.998h-1.188v1.289H16.3c0.432,0,0.666-0.21,0.666-0.642S16.732,41.998,16.3,41.998z M16.402,43.815h-1.289v1.361h1.289c0.45,0,0.696-0.228,0.696-0.678C17.098,44.055,16.852,43.815,16.402,43.815z"/><path fill="#2D4F5B" d="M18.569,41.458h0.264c0.12,0,0.162,0.042,0.162,0.156v3.946c0,0.114-0.042,0.156-0.162,0.156h-0.264c-0.114,0-0.156-0.042-0.156-0.156v-3.946C18.413,41.5,18.455,41.458,18.569,41.458z"/><path fill="#2D4F5B" d="M23.163,41.614v3.562h0.348c0.12,0,0.156,0.042,0.156,0.156v1.146c0,0.114-0.036,0.156-0.156,0.156h-0.251c-0.12,0-0.162-0.042-0.162-0.156v-0.762h-2.992v0.762c0,0.114-0.036,0.156-0.156,0.156h-0.252c-0.12,0-0.156-0.042-0.156-0.156v-1.146c0-0.114,0.036-0.156,0.156-0.156h0.18c0.264-0.18,0.588-0.564,0.588-2.333v-1.229c0-0.114,0.042-0.156,0.156-0.156h2.381C23.121,41.458,23.163,41.5,23.163,41.614z M21.022,42.843c0,1.481-0.222,2.021-0.462,2.333h2.021v-3.178h-1.56V42.843z"/><path fill="#2D4F5B" d="M27.273,41.614l-1.895,3.964c-0.048,0.114-0.09,0.138-0.258,0.138h-0.312c-0.113,0-0.126-0.066-0.078-0.156l0.54-1.074l-1.493-2.872c-0.048-0.09-0.036-0.156,0.078-0.156h0.27c0.187,0,0.24,0,0.306,0.138l1.146,2.243l1.067-2.243c0.061-0.138,0.103-0.138,0.282-0.138h0.264C27.309,41.458,27.309,41.524,27.273,41.614z"/><path fill="#2D4F5B" d="M30.597,45.716h-0.233c-0.198,0-0.252-0.03-0.288-0.138l-0.372-0.978h-1.775l-0.371,0.978c-0.042,0.108-0.097,0.138-0.288,0.138h-0.21c-0.12,0-0.144-0.054-0.107-0.156l1.559-3.982c0.036-0.108,0.084-0.132,0.198-0.132h0.239c0.114,0,0.162,0.024,0.198,0.126l1.56,3.988C30.741,45.662,30.717,45.716,30.597,45.716z M28.834,41.986h-0.036c-0.006,0.012-0.006,0.282-0.103,0.558l-0.605,1.583h1.451l-0.6-1.577C28.846,42.268,28.834,41.998,28.834,41.986z"/><path fill="#2D4F5B" d="M34.324,41.614v3.946c0,0.114-0.042,0.156-0.162,0.156h-0.264c-0.114,0-0.156-0.042-0.156-0.156v-3.562h-1.517v0.936c0,2.23-0.51,2.566-1.073,2.842c-0.108,0.048-0.162,0.036-0.21-0.072l-0.12-0.228c-0.054-0.108-0.03-0.168,0.078-0.216c0.372-0.186,0.756-0.408,0.756-2.327v-1.319c0-0.114,0.042-0.156,0.155-0.156h2.351C34.282,41.458,34.324,41.5,34.324,41.614z"/><path fill="#2D4F5B" d="M35.212,45.56v-3.946c0-0.114,0.042-0.156,0.156-0.156h0.264c0.12,0,0.162,0.042,0.162,0.156v1.391h1.176c0.852,0,1.379,0.503,1.379,1.349c0,0.852-0.534,1.361-1.379,1.361h-1.602C35.254,45.716,35.212,45.674,35.212,45.56z M35.794,45.176h1.121c0.516,0,0.828-0.306,0.828-0.822s-0.312-0.81-0.828-0.81h-1.121V45.176z"/><path fill="#2D4F5B" d="M42.184,41.614v3.946c0,0.114-0.036,0.156-0.156,0.156h-0.264c-0.12,0-0.156-0.042-0.156-0.156v-1.733h-2.051v1.733c0,0.114-0.042,0.156-0.162,0.156h-0.264c-0.114,0-0.156-0.042-0.156-0.156v-3.946c0-0.114,0.042-0.156,0.156-0.156h0.264c0.12,0,0.162,0.042,0.162,0.156v1.673h2.051v-1.673c0-0.114,0.036-0.156,0.156-0.156h0.264C42.148,41.458,42.184,41.5,42.184,41.614z"/><path fill="#2D4F5B" d="M43.229,41.458h0.264c0.12,0,0.162,0.042,0.162,0.156v3.946c0,0.114-0.042,0.156-0.162,0.156h-0.264c-0.114,0-0.156-0.042-0.156-0.156v-3.946C43.073,41.5,43.115,41.458,43.229,41.458z"/><path fill="#2D4F5B" d="M49.047,42.82c0,0.846-0.527,1.349-1.379,1.349h-1.176v1.392c0,0.114-0.042,0.156-0.162,0.156h-0.264c-0.114,0-0.156-0.042-0.156-0.156v-3.946c0-0.114,0.042-0.156,0.156-0.156h1.602C48.513,41.458,49.047,41.968,49.047,42.82z M48.442,42.82c0-0.516-0.312-0.821-0.828-0.821h-1.121v1.631h1.121C48.129,43.629,48.442,43.335,48.442,42.82z"/><path fill="#2D4F5B" d="M49.829,41.458h0.264c0.12,0,0.162,0.042,0.162,0.156v3.946c0,0.114-0.042,0.156-0.162,0.156h-0.264c-0.114,0-0.156-0.042-0.156-0.156v-3.946C49.672,41.5,49.714,41.458,49.829,41.458z"/><path fill="#2D4F5B" d="M55.76,41.614v3.946c0,0.114-0.036,0.156-0.156,0.156h-4.306c-0.114,0-0.156-0.042-0.156-0.156v-3.946c0-0.114,0.042-0.156,0.156-0.156h0.264c0.12,0,0.162,0.042,0.162,0.156v3.562h1.439v-3.562c0-0.114,0.042-0.156,0.155-0.156h0.265c0.119,0,0.161,0.042,0.161,0.156v3.562h1.439v-3.562c0-0.114,0.036-0.156,0.156-0.156h0.264C55.724,41.458,55.76,41.5,55.76,41.614z"/><path fill="#2D4F5B" d="M59.373,41.614v0.228c0,0.114-0.036,0.156-0.155,0.156h-1.985v1.289h1.709c0.12,0,0.156,0.042,0.156,0.162v0.222c0,0.12-0.036,0.156-0.156,0.156h-1.709v1.35h2.057c0.12,0,0.156,0.042,0.156,0.156v0.228c0,0.114-0.036,0.156-0.156,0.156h-2.482c-0.114,0-0.156-0.042-0.156-0.156v-3.946c0-0.114,0.042-0.156,0.156-0.156h2.411C59.337,41.458,59.373,41.5,59.373,41.614z"/><path fill="#2D4F5B" d="M63.316,41.614v3.946c0,0.114-0.036,0.156-0.156,0.156h-0.264c-0.12,0-0.156-0.042-0.156-0.156v-1.733h-2.051v1.733c0,0.114-0.042,0.156-0.162,0.156h-0.264c-0.114,0-0.156-0.042-0.156-0.156v-3.946c0-0.114,0.042-0.156,0.156-0.156h0.264c0.12,0,0.162,0.042,0.162,0.156v1.673h2.051v-1.673c0-0.114,0.036-0.156,0.156-0.156h0.264C63.28,41.458,63.316,41.5,63.316,41.614z"/><path fill="#2D4F5B" d="M67.414,41.614v3.946c0,0.114-0.036,0.156-0.156,0.156h-0.264c-0.12,0-0.156-0.042-0.156-0.156v-1.733h-2.051v1.733c0,0.114-0.042,0.156-0.162,0.156h-0.264c-0.114,0-0.156-0.042-0.156-0.156v-3.946c0-0.114,0.042-0.156,0.156-0.156h0.264c0.12,0,0.162,0.042,0.162,0.156v1.673h2.051v-1.673c0-0.114,0.036-0.156,0.156-0.156h0.264C67.377,41.458,67.414,41.5,67.414,41.614z"/><path fill="#2D4F5B" d="M69.448,41.458h1.68c0.119,0,0.155,0.042,0.155,0.156v3.946c0,0.114-0.036,0.156-0.155,0.156h-0.265c-0.119,0-0.155-0.042-0.155-0.156v-1.553h-0.666c-0.443,0-0.623,0.114-0.785,0.474l-0.504,1.098c-0.048,0.12-0.114,0.138-0.312,0.138h-0.265c-0.119,0-0.126-0.066-0.084-0.162l0.624-1.289c0.078-0.156,0.162-0.27,0.282-0.342c-0.54-0.138-0.852-0.552-0.852-1.188C68.147,41.926,68.638,41.458,69.448,41.458z M68.752,42.736c0,0.468,0.275,0.732,0.75,0.732h1.205v-1.469h-1.205C69.022,41.998,68.752,42.262,68.752,42.736z"/><path fill="#2D4F5B" d="M76.575,42.562c0,0.462-0.168,0.768-0.516,0.936v0.018c0.426,0.126,0.672,0.486,0.672,1.043c0,0.75-0.527,1.157-1.295,1.157h-1.733c-0.114,0-0.156-0.042-0.156-0.156v-3.946c0-0.114,0.042-0.156,0.156-0.156h1.679C76.131,41.458,76.575,41.848,76.575,42.562z M75.316,41.998h-1.188v1.289h1.188c0.432,0,0.666-0.21,0.666-0.642S75.748,41.998,75.316,41.998z M75.417,43.815h-1.289v1.361h1.289c0.45,0,0.696-0.228,0.696-0.678C76.114,44.055,75.868,43.815,75.417,43.815z"/><path fill="#2D4F5B" d="M81.975,41.614v3.946c0,0.114-0.042,0.156-0.162,0.156h-0.264c-0.114,0-0.156-0.042-0.156-0.156v-3.562h-2.015v3.562c0,0.114-0.042,0.156-0.162,0.156h-0.264c-0.114,0-0.156-0.042-0.156-0.156v-3.946c0-0.114,0.042-0.156,0.156-0.156h2.86C81.933,41.458,81.975,41.5,81.975,41.614z"/><path fill="#2D4F5B" d="M86.001,42.82c0,0.846-0.527,1.349-1.379,1.349h-1.176v1.392c0,0.114-0.042,0.156-0.162,0.156h-0.264c-0.114,0-0.156-0.042-0.156-0.156v-3.946c0-0.114,0.042-0.156,0.156-0.156h1.602C85.467,41.458,86.001,41.968,86.001,42.82z M85.396,42.82c0-0.516-0.312-0.821-0.828-0.821h-1.121v1.631h1.121C85.083,43.629,85.396,43.335,85.396,42.82z"/><path fill="#2D4F5B" d="M88.18,41.368c1.085,0,1.679,0.588,1.679,1.535v1.367c0,0.948-0.594,1.535-1.679,1.535c-1.086,0-1.68-0.587-1.68-1.535v-1.367C86.5,41.956,87.094,41.368,88.18,41.368z M88.18,41.908c-0.708,0-1.098,0.36-1.098,0.996v1.367c0,0.636,0.39,0.996,1.098,0.996c0.707,0,1.098-0.36,1.098-0.996v-1.367C89.278,42.268,88.887,41.908,88.18,41.908z"/><path fill="#2D4F5B" d="M94.563,41.614v3.946c0,0.114-0.042,0.156-0.156,0.156h-0.239c-0.12,0-0.156-0.042-0.156-0.156v-2.165c0-0.336,0.036-0.708,0.107-1.127h-0.029c-0.15,0.402-0.3,0.69-0.48,1.008l-0.761,1.355c-0.049,0.084-0.091,0.114-0.187,0.114h-0.149c-0.097,0-0.132-0.024-0.187-0.114l-0.773-1.367c-0.186-0.318-0.306-0.576-0.449-0.996h-0.036c0.071,0.426,0.096,0.774,0.096,1.127v2.165c0,0.114-0.036,0.156-0.156,0.156h-0.228c-0.114,0-0.156-0.042-0.156-0.156v-3.946c0-0.114,0.042-0.156,0.156-0.156h0.21c0.132,0,0.168,0.024,0.222,0.12l1.38,2.453l1.373-2.447c0.054-0.102,0.09-0.126,0.216-0.126h0.228C94.521,41.458,94.563,41.5,94.563,41.614z"/><path fill="#2D4F5B" d="M98.739,41.614v3.946c0,0.114-0.035,0.156-0.155,0.156H98.32c-0.12,0-0.156-0.042-0.156-0.156v-2.087c0-0.57,0.024-0.81,0.107-1.29h-0.023c-0.186,0.42-0.33,0.654-0.618,1.098l-1.589,2.356c-0.042,0.06-0.078,0.078-0.162,0.078h-0.27c-0.114,0-0.156-0.042-0.156-0.156v-3.946c0-0.114,0.042-0.156,0.156-0.156h0.264c0.12,0,0.162,0.042,0.162,0.156v2.045c0,0.576-0.03,0.839-0.107,1.331h0.018c0.198-0.432,0.359-0.708,0.653-1.151l1.56-2.303c0.03-0.048,0.072-0.078,0.155-0.078h0.271C98.704,41.458,98.739,41.5,98.739,41.614z"/><path fill="#2D4F5B" d="M101.182,41.368c0.899,0,1.397,0.36,1.613,1.02c0.036,0.114,0.012,0.162-0.103,0.204l-0.246,0.084c-0.113,0.036-0.161,0.018-0.203-0.096c-0.15-0.45-0.462-0.672-1.062-0.672c-0.714,0-1.098,0.36-1.098,0.99v1.379c0,0.624,0.39,0.99,1.098,0.99c0.611,0,0.917-0.234,1.067-0.684c0.042-0.12,0.09-0.144,0.204-0.102l0.245,0.09c0.114,0.036,0.145,0.09,0.103,0.204c-0.216,0.66-0.708,1.031-1.619,1.031c-1.079,0-1.68-0.587-1.68-1.535v-1.367C99.502,41.956,100.096,41.368,101.182,41.368z"/><path fill="#2D4F5B" d="M106.557,41.614v3.946c0,0.114-0.042,0.156-0.162,0.156h-0.264c-0.114,0-0.156-0.042-0.156-0.156v-3.562h-1.517v0.936c0,2.23-0.51,2.566-1.073,2.842c-0.108,0.048-0.162,0.036-0.21-0.072l-0.12-0.228c-0.054-0.108-0.03-0.168,0.078-0.216c0.372-0.186,0.756-0.408,0.756-2.327v-1.319c0-0.114,0.042-0.156,0.155-0.156h2.351C106.515,41.458,106.557,41.5,106.557,41.614z"/><path fill="#2D4F5B" d="M108.999,41.368c1.085,0,1.679,0.588,1.679,1.535v1.367c0,0.948-0.594,1.535-1.679,1.535c-1.086,0-1.68-0.587-1.68-1.535v-1.367C107.32,41.956,107.914,41.368,108.999,41.368z M108.999,41.908c-0.708,0-1.098,0.36-1.098,0.996v1.367c0,0.636,0.39,0.996,1.098,0.996c0.707,0,1.098-0.36,1.098-0.996v-1.367C110.097,42.268,109.707,41.908,108.999,41.908z"/><path fill="#2D4F5B" d="M114.47,42.562c0,0.462-0.168,0.768-0.516,0.936v0.018c0.426,0.126,0.672,0.486,0.672,1.043c0,0.75-0.527,1.157-1.295,1.157h-1.733c-0.114,0-0.156-0.042-0.156-0.156v-3.946c0-0.114,0.042-0.156,0.156-0.156h1.679C114.027,41.458,114.47,41.848,114.47,42.562z M113.211,41.998h-1.188v1.289h1.188c0.432,0,0.665-0.21,0.665-0.642S113.643,41.998,113.211,41.998z M113.313,43.815h-1.289v1.361h1.289c0.45,0,0.696-0.228,0.696-0.678C114.009,44.055,113.763,43.815,113.313,43.815z"/><path fill="#2D4F5B" d="M118.61,41.614v3.946c0,0.114-0.035,0.156-0.155,0.156h-0.264c-0.12,0-0.156-0.042-0.156-0.156v-2.087c0-0.57,0.024-0.81,0.107-1.29h-0.023c-0.186,0.42-0.33,0.654-0.618,1.098l-1.589,2.356c-0.042,0.06-0.078,0.078-0.162,0.078h-0.27c-0.114,0-0.156-0.042-0.156-0.156v-3.946c0-0.114,0.042-0.156,0.156-0.156h0.264c0.12,0,0.162,0.042,0.162,0.156v2.045c0,0.576-0.03,0.839-0.107,1.331h0.018c0.198-0.432,0.359-0.708,0.653-1.151l1.56-2.303c0.03-0.048,0.072-0.078,0.155-0.078h0.271C118.575,41.458,118.61,41.5,118.61,41.614z"/><path fill="#2D4F5B" d="M122.63,45.716h-0.324c-0.18,0-0.222-0.012-0.306-0.138l-1.092-1.583l-1.061,1.583c-0.084,0.125-0.12,0.138-0.307,0.138h-0.3c-0.119,0-0.138-0.078-0.077-0.162l1.402-2.003l-1.354-1.943c-0.061-0.072-0.03-0.15,0.077-0.15h0.312c0.186,0,0.222,0.018,0.306,0.132l1.031,1.5l1.031-1.5c0.084-0.114,0.12-0.132,0.288-0.132h0.324c0.107,0,0.132,0.078,0.078,0.15l-1.361,1.937l1.409,2.009C122.774,45.632,122.75,45.716,122.63,45.716z"/><path fill="#2D4F5B" d="M128.57,41.614v3.946c0,0.114-0.042,0.156-0.156,0.156h-0.239c-0.12,0-0.156-0.042-0.156-0.156v-2.165c0-0.336,0.036-0.708,0.107-1.127h-0.029c-0.15,0.402-0.3,0.69-0.48,1.008l-0.761,1.355c-0.049,0.084-0.091,0.114-0.187,0.114h-0.149c-0.097,0-0.132-0.024-0.187-0.114l-0.773-1.367c-0.186-0.318-0.306-0.576-0.449-0.996h-0.036c0.072,0.426,0.096,0.774,0.096,1.127v2.165c0,0.114-0.036,0.156-0.156,0.156h-0.228c-0.114,0-0.156-0.042-0.156-0.156v-3.946c0-0.114,0.042-0.156,0.156-0.156h0.21c0.132,0,0.168,0.024,0.222,0.12l1.38,2.453l1.373-2.447c0.054-0.102,0.09-0.126,0.216-0.126h0.228C128.528,41.458,128.57,41.5,128.57,41.614z"/><path fill="#2D4F5B" d="M132.728,45.716h-0.233c-0.198,0-0.252-0.03-0.288-0.138l-0.372-0.978h-1.775l-0.371,0.978c-0.042,0.108-0.097,0.138-0.288,0.138h-0.21c-0.12,0-0.144-0.054-0.107-0.156l1.559-3.982c0.036-0.108,0.084-0.132,0.198-0.132h0.239c0.114,0,0.162,0.024,0.198,0.126l1.56,3.988C132.872,45.662,132.848,45.716,132.728,45.716z M130.965,41.986h-0.036c-0.006,0.012-0.006,0.282-0.103,0.558l-0.605,1.583h1.451l-0.6-1.577C130.977,42.268,130.965,41.998,130.965,41.986z"/><path fill="#2D4F5B" d="M134.805,41.368c0.899,0,1.397,0.36,1.613,1.02c0.036,0.114,0.012,0.162-0.103,0.204l-0.246,0.084c-0.113,0.036-0.161,0.018-0.203-0.096c-0.15-0.45-0.462-0.672-1.062-0.672c-0.714,0-1.098,0.36-1.098,0.99v1.379c0,0.624,0.39,0.99,1.098,0.99c0.611,0,0.917-0.234,1.067-0.684c0.042-0.12,0.09-0.144,0.204-0.102l0.245,0.09c0.114,0.036,0.145,0.09,0.103,0.204c-0.216,0.66-0.708,1.031-1.619,1.031c-1.079,0-1.68-0.587-1.68-1.535v-1.367C133.125,41.956,133.719,41.368,134.805,41.368z"/><path fill="#2D4F5B" d="M141.698,41.614v3.946c0,0.114-0.036,0.156-0.156,0.156h-4.306c-0.114,0-0.156-0.042-0.156-0.156v-3.946c0-0.114,0.042-0.156,0.156-0.156h0.264c0.12,0,0.162,0.042,0.162,0.156v3.562h1.439v-3.562c0-0.114,0.042-0.156,0.155-0.156h0.265c0.119,0,0.161,0.042,0.161,0.156v3.562h1.439v-3.562c0-0.114,0.036-0.156,0.156-0.156h0.264C141.662,41.458,141.698,41.5,141.698,41.614z"/><path fill="#2D4F5B" d="M145.382,41.614v0.228c0,0.114-0.042,0.156-0.156,0.156h-1.133v3.562c0,0.114-0.036,0.156-0.156,0.156h-0.264c-0.12,0-0.156-0.042-0.156-0.156v-3.562h-1.133c-0.12,0-0.156-0.042-0.156-0.156v-0.228c0-0.114,0.036-0.156,0.156-0.156h2.842C145.34,41.458,145.382,41.5,145.382,41.614z"/><path fill="#2D4F5B" d="M148.712,45.716h-0.233c-0.198,0-0.252-0.03-0.288-0.138l-0.372-0.978h-1.775l-0.371,0.978c-0.042,0.108-0.097,0.138-0.288,0.138h-0.21c-0.12,0-0.144-0.054-0.107-0.156l1.559-3.982c0.036-0.108,0.084-0.132,0.198-0.132h0.239c0.114,0,0.162,0.024,0.198,0.126l1.56,3.988C148.856,45.662,148.832,45.716,148.712,45.716z M146.95,41.986h-0.036c-0.006,0.012-0.006,0.282-0.103,0.558l-0.605,1.583h1.451l-0.6-1.577C146.961,42.268,146.95,41.998,146.95,41.986z"/><path fill="#2D4F5B" d="M152.192,41.614v0.228c0,0.114-0.042,0.156-0.161,0.156h-2.111v1.193h1.289c0.786,0,1.283,0.468,1.283,1.259s-0.497,1.265-1.283,1.265h-1.715c-0.114,0-0.156-0.036-0.156-0.15v-3.952c0-0.114,0.042-0.156,0.156-0.156h2.537C152.15,41.458,152.192,41.5,152.192,41.614z M151.149,43.731h-1.229v1.445h1.229c0.462,0,0.737-0.276,0.737-0.726C151.886,44.007,151.611,43.731,151.149,43.731z"/><path fill="#2D4F5B" d="M156.32,45.716h-0.233c-0.198,0-0.252-0.03-0.288-0.138l-0.372-0.978h-1.775l-0.371,0.978c-0.042,0.108-0.097,0.138-0.288,0.138h-0.21c-0.12,0-0.144-0.054-0.107-0.156l1.559-3.982c0.036-0.108,0.084-0.132,0.198-0.132h0.239c0.114,0,0.162,0.024,0.198,0.126l1.56,3.988C156.463,45.662,156.44,45.716,156.32,45.716z M154.557,41.986h-0.036c-0.006,0.012-0.006,0.282-0.103,0.558l-0.605,1.583h1.451l-0.6-1.577C154.569,42.268,154.557,41.998,154.557,41.986z"/><path fill="#2D4F5B" d="M160.077,45.716h-0.324c-0.18,0-0.222-0.012-0.306-0.138l-1.092-1.583l-1.061,1.583c-0.084,0.125-0.12,0.138-0.307,0.138h-0.3c-0.119,0-0.138-0.078-0.077-0.162l1.402-2.003l-1.354-1.943c-0.061-0.072-0.03-0.15,0.077-0.15h0.312c0.186,0,0.222,0.018,0.306,0.132l1.031,1.5l1.031-1.5c0.084-0.114,0.12-0.132,0.288-0.132h0.324c0.107,0,0.132,0.078,0.078,0.15l-1.361,1.937l1.409,2.009C160.22,45.632,160.197,45.716,160.077,45.716z"/></g><g><path fill-rule="evenodd" clip-rule="evenodd" fill="#F2142B" d="M26.351,7.665H0v26.351h26.351V7.665L26.351,7.665z M17.003,10.225h6.807v6.807h-6.807V10.225L17.003,10.225z M9.781,10.225h6.807v6.807H9.781V10.225L9.781,10.225z M2.56,10.225h6.807v6.807H2.56V10.225L2.56,10.225z M2.56,17.435h6.807v6.807H2.56V17.435L2.56,17.435z M11.019,17.536l6.688,1.269l-1.268,6.688l-6.687-1.267L11.019,17.536L11.019,17.536z M2.56,24.645h6.807v6.807H2.56V24.645L2.56,24.645z"/><path fill-rule="evenodd" clip-rule="evenodd" fill="#2D4F5B" d="M160.119,3.642c0,0.335-0.169,0.587-0.509,0.755c-0.281,0.14-0.644,0.209-1.088,0.209h-1.187l2.407,1.02c0.128,0.052,0.191,0.135,0.191,0.249c0,0.162-0.096,0.242-0.29,0.24c-0.193-0.002-0.326-0.01-0.4-0.022L155.96,4.69v1.17c0,0.17-0.085,0.256-0.255,0.256h-0.214c-0.168,0-0.252-0.085-0.252-0.256V2.42c0-0.168,0.084-0.252,0.252-0.252h2.899c0.45,0,0.82,0.059,1.109,0.175c0.414,0.166,0.62,0.441,0.62,0.822V3.642L160.119,3.642z M159.398,3.649V3.151c0-0.263-0.337-0.395-1.011-0.395h-2.427v1.262h2.556C159.104,4.018,159.398,3.895,159.398,3.649L159.398,3.649z M161.82,4.142c0,2.287-1.855,4.141-4.142,4.141c-2.287,0-4.141-1.854-4.141-4.141c0-2.287,1.854-4.142,4.141-4.142C159.966,0,161.82,1.854,161.82,4.142L161.82,4.142z M161.223,4.142c0,1.958-1.586,3.545-3.545,3.545c-1.958,0-3.545-1.587-3.545-3.545s1.587-3.546,3.545-3.546C159.637,0.596,161.223,2.184,161.223,4.142L161.223,4.142z M131.203,16.567h22.333c0.919,0,1.379,0.407,1.379,1.221s-0.525,1.221-1.575,1.221h-22.097c-3.965,0-5.947-1.878-5.947-5.633c0-1.864,0.525-3.282,1.576-4.254c1.05-0.971,2.507-1.457,4.371-1.457h19.497c1.13,0,2.107,0.302,2.935,0.906c0.827,0.603,1.241,1.457,1.241,2.56c0,1.077-0.414,1.924-1.241,2.54c-0.827,0.617-1.792,0.926-2.895,0.926h-16.346c-0.788,0-1.182-0.42-1.182-1.261c0-0.788,0.42-1.181,1.261-1.181h16.858c0.656,0,0.985-0.341,0.985-1.024c0-0.683-0.341-1.024-1.024-1.024h-19.734c-2.469,0-3.703,1.076-3.703,3.23C127.894,15.49,128.997,16.567,131.203,16.567L131.203,16.567z M150.725,25.114h-9.098v7.642c0,0.84-0.42,1.26-1.261,1.26c-0.867,0-1.3-0.42-1.3-1.26v-7.642h-9.177c-0.762,0-1.26,0.158-1.497,0.473c-0.236,0.315-0.354,0.88-0.354,1.693v5.436c0,0.867-0.433,1.3-1.299,1.3c-0.84,0-1.261-0.42-1.261-1.26v-5.948c0-1.549,0.407-2.626,1.221-3.23c0.814-0.604,1.996-0.906,3.545-0.906h20.127c3.204,0,4.806,1.379,4.806,4.136v5.948c0,0.84-0.447,1.26-1.339,1.26c-0.84,0-1.261-0.42-1.261-1.26V27.28c0-0.788-0.124-1.345-0.374-1.674C151.953,25.278,151.461,25.114,150.725,25.114L150.725,25.114z M35.882,16.567h24.066c0.814,0,1.221,0.42,1.221,1.26c0,0.788-0.421,1.182-1.261,1.182H36.237c-1.601,0-2.77-0.276-3.505-0.828c-0.84-0.63-1.26-1.719-1.26-3.269V7.665h2.56v6.736c0,0.84,0.092,1.391,0.276,1.654C34.57,16.396,35.095,16.567,35.882,16.567L35.882,16.567z M67.117,16.567h22.688V9.004c0-0.893,0.421-1.339,1.26-1.339c0.893,0,1.339,0.433,1.339,1.3v10.044H67.472c-1.601,0-2.77-0.276-3.505-0.828c-0.84-0.63-1.26-1.719-1.26-3.269V8.964c0-0.866,0.42-1.3,1.26-1.3c0.867,0,1.3,0.433,1.3,1.3v5.436c0,0.84,0.092,1.391,0.276,1.654C65.805,16.396,66.33,16.567,67.117,16.567L67.117,16.567z M112.139,7.705h10.556c0.761,0,1.142,0.407,1.142,1.221c0,0.788-0.381,1.182-1.142,1.182h-9.453c-0.499,0-0.998,0.446-1.497,1.339l-1.103,1.891l1.103,1.891c0.262,0.446,0.446,0.781,0.552,1.004c0.105,0.223,0.42,0.335,0.945,0.335h9.453c0.761,0,1.142,0.407,1.142,1.221s-0.381,1.221-1.142,1.221h-9.768c-0.893,0-1.562-0.178-2.009-0.532c-0.447-0.354-0.932-0.965-1.457-1.831l-0.394-0.67l-0.315,0.67c-0.316,0.682-0.716,1.247-1.202,1.693c-0.485,0.447-1.004,0.67-1.555,0.67H95.359c-0.787,0-1.182-0.394-1.182-1.182c0-0.84,0.394-1.26,1.182-1.26h9.532c0.42,0,0.715-0.099,0.886-0.296c0.171-0.197,0.387-0.545,0.65-1.043l1.063-1.891l-1.063-1.891c-0.157-0.263-0.328-0.492-0.512-0.689c-0.185-0.197-0.512-0.4-0.984-0.61h-9.572c-0.787,0-1.182-0.407-1.182-1.221c0-0.814,0.394-1.221,1.182-1.221h10.635c1.077,0,1.996,0.787,2.757,2.363l0.315,0.67l0.394-0.67C110.353,8.492,111.246,7.705,112.139,7.705L112.139,7.705z M59.895,25.114H35.869c-0.762,0-1.261,0.158-1.497,0.473c-0.236,0.315-0.355,0.88-0.355,1.693v1.3h17.764c0.762,0,1.143,0.394,1.143,1.181c0,0.84-0.407,1.261-1.221,1.261H34.017v2.993h-2.56v-7.208c0-1.549,0.407-2.626,1.221-3.23c0.815-0.604,1.996-0.906,3.545-0.906h23.672c0.841,0,1.261,0.407,1.261,1.221C61.156,24.707,60.736,25.114,59.895,25.114L59.895,25.114z M86.286,34.016H68.522c-1.865,0-3.322-0.486-4.372-1.457c-1.05-0.972-1.576-2.377-1.576-4.215c0-3.781,1.983-5.672,5.948-5.672h17.764c3.991,0,5.987,1.891,5.987,5.672c0,1.865-0.532,3.276-1.595,4.234C89.614,33.536,88.15,34.016,86.286,34.016L86.286,34.016z M86.325,25.114H68.482c-2.206,0-3.308,1.077-3.308,3.23c0,2.153,1.234,3.23,3.702,3.23h17.095c2.416,0,3.623-1.077,3.623-3.23C89.594,26.191,88.505,25.114,86.325,25.114L86.325,25.114z M122.523,25.114H98.457c-0.761,0-1.26,0.158-1.497,0.473c-0.236,0.315-0.355,0.88-0.355,1.693v6.736h-2.56v-7.208c0-1.549,0.407-2.626,1.221-3.23c0.814-0.604,1.995-0.906,3.545-0.906h23.673c0.84,0,1.26,0.407,1.26,1.221C123.744,24.707,123.337,25.114,122.523,25.114L122.523,25.114z"/></g></g></svg>