<svg version="1.0" xmlns="http://www.w3.org/2000/svg" viewBox="0 0 161.82 46.634"><path d="M.599 41.458h.264c.12 0 .162.042.162.156v3.946c0 .114-.042.156-.162.156H.599c-.114 0-.156-.042-.156-.156v-3.946c0-.114.042-.156.156-.156zm4.523.156v3.946c0 .114-.036.156-.156.156h-.264c-.12 0-.156-.042-.156-.156v-1.733H2.495v1.733c0 .114-.042.156-.162.156h-.264c-.114 0-.156-.042-.156-.156v-3.946c0-.114.042-.156.156-.156h.264c.12 0 .162.042.162.156v1.673h2.051v-1.673c0-.114.036-.156.156-.156h.264c.119 0 .156.042.156.156zm4.169 0v3.562h.348c.12 0 .156.042.156.156v1.146c0 .114-.036.156-.156.156h-.251c-.12 0-.162-.042-.162-.156v-.762H6.234v.762c0 .114-.036.156-.156.156h-.252c-.12 0-.156-.042-.156-.156v-1.146c0-.114.036-.156.156-.156h.18c.264-.18.588-.564.588-2.333v-1.229c0-.114.042-.156.156-.156h2.38c.119 0 .161.042.161.156zm-2.14 1.229c0 1.481-.222 2.021-.462 2.333H8.71v-3.178H7.15v.845zm6.49-1.229v3.946c0 .114-.035.156-.155.156h-.264c-.12 0-.156-.042-.156-.156v-2.087c0-.57.024-.81.107-1.29h-.023c-.186.42-.33.654-.618 1.098l-1.589 2.356c-.042.06-.078.078-.162.078h-.27c-.114 0-.156-.042-.156-.156v-3.946c0-.114.042-.156.156-.156h.264c.12 0 .162.042.162.156v2.045c0 .576-.03.839-.107 1.331h.018c.198-.432.359-.708.653-1.151l1.56-2.303c.03-.048.072-.078.155-.078h.271c.119.001.154.043.154.157zm3.918.948c0 .462-.168.768-.516.936v.018c.426.126.672.486.672 1.043 0 .75-.527 1.157-1.295 1.157h-1.733c-.114 0-.156-.042-.156-.156v-3.946c0-.114.042-.156.156-.156h1.679c.75 0 1.193.39 1.193 1.104zm-1.259-.564h-1.188v1.289H16.3c.432 0 .666-.21.666-.642s-.234-.647-.666-.647zm.102 1.817h-1.289v1.361h1.289c.45 0 .696-.228.696-.678 0-.443-.246-.683-.696-.683zm2.167-2.357h.264c.12 0 .162.042.162.156v3.946c0 .114-.042.156-.162.156h-.264c-.114 0-.156-.042-.156-.156v-3.946c0-.114.042-.156.156-.156zm4.594.156v3.562h.348c.12 0 .156.042.156.156v1.146c0 .114-.036.156-.156.156h-.251c-.12 0-.162-.042-.162-.156v-.762h-2.992v.762c0 .114-.036.156-.156.156h-.252c-.12 0-.156-.042-.156-.156v-1.146c0-.114.036-.156.156-.156h.18c.264-.18.588-.564.588-2.333v-1.229c0-.114.042-.156.156-.156h2.381c.118 0 .16.042.16.156zm-2.141 1.229c0 1.481-.222 2.021-.462 2.333h2.021v-3.178h-1.56v.845zm6.251-1.229l-1.895 3.964c-.048.114-.09.138-.258.138h-.312c-.113 0-.126-.066-.078-.156l.54-1.074-1.493-2.872c-.048-.09-.036-.156.078-.156h.27c.187 0 .24 0 .306.138l1.146 2.243 1.067-2.243c.061-.138.103-.138.282-.138h.264c.119 0 .119.066.083.156zm3.324 4.102h-.233c-.198 0-.252-.03-.288-.138l-.372-.978h-1.775l-.371.978c-.042.108-.097.138-.288.138h-.21c-.12 0-.144-.054-.107-.156l1.559-3.982c.036-.108.084-.132.198-.132h.239c.114 0 .162.024.198.126l1.56 3.988c.034.102.01.156-.11.156zm-1.763-3.73h-.036c-.006.012-.006.282-.103.558l-.605 1.583h1.451l-.6-1.577a2.216 2.216 0 01-.107-.564zm5.49-.372v3.946c0 .114-.042.156-.162.156h-.264c-.114 0-.156-.042-.156-.156v-3.562h-1.517v.936c0 2.23-.51 2.566-1.073 2.842-.108.048-.162.036-.21-.072l-.12-.228c-.054-.108-.03-.168.078-.216.372-.186.756-.408.756-2.327v-1.319c0-.114.042-.156.155-.156h2.351c.12 0 .162.042.162.156zm.888 3.946v-3.946c0-.114.042-.156.156-.156h.264c.12 0 .162.042.162.156v1.391h1.176c.852 0 1.379.503 1.379 1.349 0 .852-.534 1.361-1.379 1.361h-1.602c-.114.001-.156-.041-.156-.155zm.582-.384h1.121c.516 0 .828-.306.828-.822s-.312-.81-.828-.81h-1.121v1.632zm6.39-3.562v3.946c0 .114-.036.156-.156.156h-.264c-.12 0-.156-.042-.156-.156v-1.733h-2.051v1.733c0 .114-.042.156-.162.156h-.264c-.114 0-.156-.042-.156-.156v-3.946c0-.114.042-.156.156-.156h.264c.12 0 .162.042.162.156v1.673h2.051v-1.673c0-.114.036-.156.156-.156h.264c.12 0 .156.042.156.156zm1.045-.156h.264c.12 0 .162.042.162.156v3.946c0 .114-.042.156-.162.156h-.264c-.114 0-.156-.042-.156-.156v-3.946c0-.114.042-.156.156-.156zm5.818 1.362c0 .846-.527 1.349-1.379 1.349h-1.176v1.392c0 .114-.042.156-.162.156h-.264c-.114 0-.156-.042-.156-.156v-3.946c0-.114.042-.156.156-.156h1.602c.845-.001 1.379.509 1.379 1.361zm-.605 0c0-.516-.312-.821-.828-.821h-1.121v1.631h1.121c.515-.001.828-.295.828-.81zm1.387-1.362h.264c.12 0 .162.042.162.156v3.946c0 .114-.042.156-.162.156h-.264c-.114 0-.156-.042-.156-.156v-3.946c-.001-.114.041-.156.156-.156zm5.931.156v3.946c0 .114-.036.156-.156.156h-4.306c-.114 0-.156-.042-.156-.156v-3.946c0-.114.042-.156.156-.156h.264c.12 0 .162.042.162.156v3.562h1.439v-3.562c0-.114.042-.156.155-.156h.265c.119 0 .161.042.161.156v3.562h1.439v-3.562c0-.114.036-.156.156-.156h.264c.121 0 .157.042.157.156zm3.613 0v.228c0 .114-.036.156-.155.156h-1.985v1.289h1.709c.12 0 .156.042.156.162v.222c0 .12-.036.156-.156.156h-1.709v1.35h2.057c.12 0 .156.042.156.156v.228c0 .114-.036.156-.156.156h-2.482c-.114 0-.156-.042-.156-.156v-3.946c0-.114.042-.156.156-.156h2.411c.118-.001.154.041.154.155zm3.943 0v3.946c0 .114-.036.156-.156.156h-.264c-.12 0-.156-.042-.156-.156v-1.733h-2.051v1.733c0 .114-.042.156-.162.156h-.264c-.114 0-.156-.042-.156-.156v-3.946c0-.114.042-.156.156-.156h.264c.12 0 .162.042.162.156v1.673h2.051v-1.673c0-.114.036-.156.156-.156h.264c.12 0 .156.042.156.156zm4.098 0v3.946c0 .114-.036.156-.156.156h-.264c-.12 0-.156-.042-.156-.156v-1.733h-2.051v1.733c0 .114-.042.156-.162.156h-.264c-.114 0-.156-.042-.156-.156v-3.946c0-.114.042-.156.156-.156h.264c.12 0 .162.042.162.156v1.673h2.051v-1.673c0-.114.036-.156.156-.156h.264c.119 0 .156.042.156.156zm2.034-.156h1.68c.119 0 .155.042.155.156v3.946c0 .114-.036.156-.155.156h-.265c-.119 0-.155-.042-.155-.156v-1.553h-.666c-.443 0-.623.114-.785.474l-.504 1.098c-.048.12-.114.138-.312.138h-.265c-.119 0-.126-.066-.084-.162l.624-1.289c.078-.156.162-.27.282-.342-.54-.138-.852-.552-.852-1.188.001-.81.492-1.278 1.302-1.278zm-.696 1.278c0 .468.275.732.75.732h1.205v-1.469h-1.205c-.48-.001-.75.263-.75.737zm7.823-.174c0 .462-.168.768-.516.936v.018c.426.126.672.486.672 1.043 0 .75-.527 1.157-1.295 1.157h-1.733c-.114 0-.156-.042-.156-.156v-3.946c0-.114.042-.156.156-.156h1.679c.749 0 1.193.39 1.193 1.104zm-1.259-.564h-1.188v1.289h1.188c.432 0 .666-.21.666-.642s-.234-.647-.666-.647zm.101 1.817h-1.289v1.361h1.289c.45 0 .696-.228.696-.678.001-.443-.245-.683-.696-.683zm6.558-2.201v3.946c0 .114-.042.156-.162.156h-.264c-.114 0-.156-.042-.156-.156v-3.562h-2.015v3.562c0 .114-.042.156-.162.156h-.264c-.114 0-.156-.042-.156-.156v-3.946c0-.114.042-.156.156-.156h2.86c.121 0 .163.042.163.156zm4.026 1.206c0 .846-.527 1.349-1.379 1.349h-1.176v1.392c0 .114-.042.156-.162.156h-.264c-.114 0-.156-.042-.156-.156v-3.946c0-.114.042-.156.156-.156h1.602c.845-.001 1.379.509 1.379 1.361zm-.605 0c0-.516-.312-.821-.828-.821h-1.121v1.631h1.121c.515-.001.828-.295.828-.81zm2.784-1.452c1.085 0 1.679.588 1.679 1.535v1.367c0 .948-.594 1.535-1.679 1.535-1.086 0-1.68-.587-1.68-1.535v-1.367c0-.947.594-1.535 1.68-1.535zm0 .54c-.708 0-1.098.36-1.098.996v1.367c0 .636.39.996 1.098.996.707 0 1.098-.36 1.098-.996v-1.367c0-.636-.391-.996-1.098-.996zm6.383-.294v3.946c0 .114-.042.156-.156.156h-.239c-.12 0-.156-.042-.156-.156v-2.165c0-.336.036-.708.107-1.127h-.029c-.15.402-.3.69-.48 1.008l-.761 1.355c-.049.084-.091.114-.187.114h-.149c-.097 0-.132-.024-.187-.114l-.773-1.367a4.907 4.907 0 01-.449-.996h-.036a6.6 6.6 0 01.096 1.127v2.165c0 .114-.036.156-.156.156h-.228c-.114 0-.156-.042-.156-.156v-3.946c0-.114.042-.156.156-.156h.21c.132 0 .168.024.222.12l1.38 2.453 1.373-2.447c.054-.102.09-.126.216-.126h.228c.112 0 .154.042.154.156zm4.176 0v3.946c0 .114-.035.156-.155.156h-.264c-.12 0-.156-.042-.156-.156v-2.087c0-.57.024-.81.107-1.29h-.023c-.186.42-.33.654-.618 1.098l-1.589 2.356c-.042.06-.078.078-.162.078h-.27c-.114 0-.156-.042-.156-.156v-3.946c0-.114.042-.156.156-.156h.264c.12 0 .162.042.162.156v2.045c0 .576-.03.839-.107 1.331h.018c.198-.432.359-.708.653-1.151l1.56-2.303c.03-.048.072-.078.155-.078h.271c.119.001.154.043.154.157zm2.443-.246c.899 0 1.397.36 1.613 1.02.036.114.012.162-.103.204l-.246.084c-.113.036-.161.018-.203-.096-.15-.45-.462-.672-1.062-.672-.714 0-1.098.36-1.098.99v1.379c0 .624.39.99 1.098.99.611 0 .917-.234 1.067-.684.042-.12.09-.144.204-.102l.245.09c.114.036.145.09.103.204-.216.66-.708 1.031-1.619 1.031-1.079 0-1.68-.587-1.68-1.535v-1.367c.001-.948.595-1.536 1.681-1.536zm5.375.246v3.946c0 .114-.042.156-.162.156h-.264c-.114 0-.156-.042-.156-.156v-3.562h-1.517v.936c0 2.23-.51 2.566-1.073 2.842-.108.048-.162.036-.21-.072l-.12-.228c-.054-.108-.03-.168.078-.216.372-.186.756-.408.756-2.327v-1.319c0-.114.042-.156.155-.156h2.351c.12 0 .162.042.162.156zm2.442-.246c1.085 0 1.679.588 1.679 1.535v1.367c0 .948-.594 1.535-1.679 1.535-1.086 0-1.68-.587-1.68-1.535v-1.367c.001-.947.595-1.535 1.68-1.535zm0 .54c-.708 0-1.098.36-1.098.996v1.367c0 .636.39.996 1.098.996.707 0 1.098-.36 1.098-.996v-1.367c0-.636-.39-.996-1.098-.996zm5.471.654c0 .462-.168.768-.516.936v.018c.426.126.672.486.672 1.043 0 .75-.527 1.157-1.295 1.157h-1.733c-.114 0-.156-.042-.156-.156v-3.946c0-.114.042-.156.156-.156h1.679c.75 0 1.193.39 1.193 1.104zm-1.259-.564h-1.188v1.289h1.188c.432 0 .665-.21.665-.642s-.233-.647-.665-.647zm.102 1.817h-1.289v1.361h1.289c.45 0 .696-.228.696-.678 0-.443-.246-.683-.696-.683zm5.297-2.201v3.946c0 .114-.035.156-.155.156h-.264c-.12 0-.156-.042-.156-.156v-2.087c0-.57.024-.81.107-1.29h-.023c-.186.42-.33.654-.618 1.098l-1.589 2.356c-.042.06-.078.078-.162.078h-.27c-.114 0-.156-.042-.156-.156v-3.946c0-.114.042-.156.156-.156h.264c.12 0 .162.042.162.156v2.045c0 .576-.03.839-.107 1.331h.018c.198-.432.359-.708.653-1.151l1.56-2.303c.03-.048.072-.078.155-.078h.271c.119.001.154.043.154.157zm4.02 4.102h-.324c-.18 0-.222-.012-.306-.138l-1.092-1.583-1.061 1.583c-.084.125-.12.138-.307.138h-.3c-.119 0-.138-.078-.077-.162l1.402-2.003-1.354-1.943c-.061-.072-.03-.15.077-.15h.312c.186 0 .222.018.306.132l1.031 1.5 1.031-1.5c.084-.114.12-.132.288-.132h.324c.107 0 .132.078.078.15l-1.361 1.937 1.409 2.009c.068.078.044.162-.076.162zm5.94-4.102v3.946c0 .114-.042.156-.156.156h-.239c-.12 0-.156-.042-.156-.156v-2.165c0-.336.036-.708.107-1.127h-.029c-.15.402-.3.69-.48 1.008l-.761 1.355c-.049.084-.091.114-.187.114h-.149c-.097 0-.132-.024-.187-.114l-.773-1.367a4.907 4.907 0 01-.449-.996h-.036a6.5 6.5 0 01.096 1.127v2.165c0 .114-.036.156-.156.156h-.228c-.114 0-.156-.042-.156-.156v-3.946c0-.114.042-.156.156-.156h.21c.132 0 .168.024.222.12l1.38 2.453 1.373-2.447c.054-.102.09-.126.216-.126h.228c.112 0 .154.042.154.156zm4.158 4.102h-.233c-.198 0-.252-.03-.288-.138l-.372-.978h-1.775l-.371.978c-.042.108-.097.138-.288.138h-.21c-.12 0-.144-.054-.107-.156l1.559-3.982c.036-.108.084-.132.198-.132h.239c.114 0 .162.024.198.126l1.56 3.988c.034.102.01.156-.11.156zm-1.763-3.73h-.036c-.006.012-.006.282-.103.558l-.605 1.583h1.451l-.6-1.577a2.216 2.216 0 01-.107-.564zm3.84-.618c.899 0 1.397.36 1.613 1.02.036.114.012.162-.103.204l-.246.084c-.113.036-.161.018-.203-.096-.15-.45-.462-.672-1.062-.672-.714 0-1.098.36-1.098.99v1.379c0 .624.39.99 1.098.99.611 0 .917-.234 1.067-.684.042-.12.09-.144.204-.102l.245.09c.114.036.145.09.103.204-.216.66-.708 1.031-1.619 1.031-1.079 0-1.68-.587-1.68-1.535v-1.367c.001-.948.595-1.536 1.681-1.536zm6.893.246v3.946c0 .114-.036.156-.156.156h-4.306c-.114 0-.156-.042-.156-.156v-3.946c0-.114.042-.156.156-.156h.264c.12 0 .162.042.162.156v3.562h1.439v-3.562c0-.114.042-.156.155-.156h.265c.119 0 .161.042.161.156v3.562h1.439v-3.562c0-.114.036-.156.156-.156h.264c.121 0 .157.042.157.156zm3.684 0v.228c0 .114-.042.156-.156.156h-1.133v3.562c0 .114-.036.156-.156.156h-.264c-.12 0-.156-.042-.156-.156v-3.562h-1.133c-.12 0-.156-.042-.156-.156v-.228c0-.114.036-.156.156-.156h2.842c.114 0 .156.042.156.156zm3.33 4.102h-.233c-.198 0-.252-.03-.288-.138l-.372-.978h-1.775l-.371.978c-.042.108-.097.138-.288.138h-.21c-.12 0-.144-.054-.107-.156l1.559-3.982c.036-.108.084-.132.198-.132h.239c.114 0 .162.024.198.126l1.56 3.988c.034.102.01.156-.11.156zm-1.762-3.73h-.036c-.006.012-.006.282-.103.558l-.605 1.583h1.451l-.6-1.577a2.166 2.166 0 01-.107-.564zm5.242-.372v.228c0 .114-.042.156-.161.156h-2.111v1.193h1.289c.786 0 1.283.468 1.283 1.259s-.497 1.265-1.283 1.265h-1.715c-.114 0-.156-.036-.156-.15v-3.952c0-.114.042-.156.156-.156h2.537c.119.001.161.043.161.157zm-1.043 2.117h-1.229v1.445h1.229c.462 0 .737-.276.737-.726 0-.443-.275-.719-.737-.719zm5.171 1.985h-.233c-.198 0-.252-.03-.288-.138l-.372-.978h-1.775l-.371.978c-.042.108-.097.138-.288.138h-.21c-.12 0-.144-.054-.107-.156l1.559-3.982c.036-.108.084-.132.198-.132h.239c.114 0 .162.024.198.126l1.56 3.988c.033.102.01.156-.11.156zm-1.763-3.73h-.036c-.006.012-.006.282-.103.558l-.605 1.583h1.451l-.6-1.577a2.216 2.216 0 01-.107-.564zm5.52 3.73h-.324c-.18 0-.222-.012-.306-.138l-1.092-1.583-1.061 1.583c-.084.125-.12.138-.307.138h-.3c-.119 0-.138-.078-.077-.162l1.402-2.003-1.354-1.943c-.061-.072-.03-.15.077-.15h.312c.186 0 .222.018.306.132l1.031 1.5 1.031-1.5c.084-.114.12-.132.288-.132h.324c.107 0 .132.078.078.15l-1.361 1.937 1.409 2.009c.067.078.044.162-.076.162z" fill="#2D4F5B"/><g fill-rule="evenodd" clip-rule="evenodd"><path fill="#F2142B" d="M26.351 7.665H0v26.351h26.351V7.665zm-9.348 2.56h6.807v6.807h-6.807v-6.807zm-7.222 0h6.807v6.807H9.781v-6.807zm-7.221 0h6.807v6.807H2.56v-6.807zm0 7.21h6.807v6.807H2.56v-6.807zm8.459.101l6.688 1.269-1.268 6.688-6.687-1.267 1.267-6.69zM2.56 24.645h6.807v6.807H2.56v-6.807z"/><path fill="#2D4F5B" d="M160.119 3.642c0 .335-.169.587-.509.755-.281.14-.644.209-1.088.209h-1.187l2.407 1.02c.128.052.191.135.191.249 0 .162-.096.242-.29.24a3.083 3.083 0 01-.4-.022L155.96 4.69v1.17c0 .17-.085.256-.255.256h-.214c-.168 0-.252-.085-.252-.256V2.42c0-.168.084-.252.252-.252h2.899c.45 0 .82.059 1.109.175.414.166.62.441.62.822v.477zm-.721.007v-.498c0-.263-.337-.395-1.011-.395h-2.427v1.262h2.556c.588 0 .882-.123.882-.369zm2.422.493a4.142 4.142 0 11-8.284-.002 4.142 4.142 0 018.284.002zm-.597 0a3.544 3.544 0 11-7.09 0 3.546 3.546 0 117.09 0zm-30.02 12.425h22.333c.919 0 1.379.407 1.379 1.221s-.525 1.221-1.575 1.221h-22.097c-3.965 0-5.947-1.878-5.947-5.633 0-1.864.525-3.282 1.576-4.254 1.05-.971 2.507-1.457 4.371-1.457h19.497c1.13 0 2.107.302 2.935.906.827.603 1.241 1.457 1.241 2.56 0 1.077-.414 1.924-1.241 2.54-.827.617-1.792.926-2.895.926h-16.346c-.788 0-1.182-.42-1.182-1.261 0-.788.42-1.181 1.261-1.181h16.858c.656 0 .985-.341.985-1.024s-.341-1.024-1.024-1.024h-19.734c-2.469 0-3.703 1.076-3.703 3.23-.001 2.153 1.102 3.23 3.308 3.23zm19.522 8.547h-9.098v7.642c0 .84-.42 1.26-1.261 1.26-.867 0-1.3-.42-1.3-1.26v-7.642h-9.177c-.762 0-1.26.158-1.497.473-.236.315-.354.88-.354 1.693v5.436c0 .867-.433 1.3-1.299 1.3-.84 0-1.261-.42-1.261-1.26v-5.948c0-1.549.407-2.626 1.221-3.23.814-.604 1.996-.906 3.545-.906h20.127c3.204 0 4.806 1.379 4.806 4.136v5.948c0 .84-.447 1.26-1.339 1.26-.84 0-1.261-.42-1.261-1.26V27.28c0-.788-.124-1.345-.374-1.674-.25-.328-.742-.492-1.478-.492zM35.882 16.567h24.066c.814 0 1.221.42 1.221 1.26 0 .788-.421 1.182-1.261 1.182H36.237c-1.601 0-2.77-.276-3.505-.828-.84-.63-1.26-1.719-1.26-3.269V7.665h2.56v6.736c0 .84.092 1.391.276 1.654.262.341.787.512 1.574.512zm31.235 0h22.688V9.004c0-.893.421-1.339 1.26-1.339.893 0 1.339.433 1.339 1.3v10.044H67.472c-1.601 0-2.77-.276-3.505-.828-.84-.63-1.26-1.719-1.26-3.269V8.964c0-.866.42-1.3 1.26-1.3.867 0 1.3.433 1.3 1.3V14.4c0 .84.092 1.391.276 1.654.262.342.787.513 1.574.513zm45.022-8.862h10.556c.761 0 1.142.407 1.142 1.221 0 .788-.381 1.182-1.142 1.182h-9.453c-.499 0-.998.446-1.497 1.339l-1.103 1.891 1.103 1.891c.262.446.446.781.552 1.004.105.223.42.335.945.335h9.453c.761 0 1.142.407 1.142 1.221s-.381 1.221-1.142 1.221h-9.768c-.893 0-1.562-.178-2.009-.532-.447-.354-.932-.965-1.457-1.831l-.394-.67-.315.67c-.316.682-.716 1.247-1.202 1.693-.485.447-1.004.67-1.555.67H95.359c-.787 0-1.182-.394-1.182-1.182 0-.84.394-1.26 1.182-1.26h9.532c.42 0 .715-.099.886-.296.171-.197.387-.545.65-1.043l1.063-1.891-1.063-1.891a4.031 4.031 0 00-.512-.689c-.185-.197-.512-.4-.984-.61h-9.572c-.787 0-1.182-.407-1.182-1.221 0-.814.394-1.221 1.182-1.221h10.635c1.077 0 1.996.787 2.757 2.363l.315.67.394-.67c.893-1.577 1.786-2.364 2.679-2.364zM59.895 25.114H35.869c-.762 0-1.261.158-1.497.473-.236.315-.355.88-.355 1.693v1.3h17.764c.762 0 1.143.394 1.143 1.181 0 .84-.407 1.261-1.221 1.261H34.017v2.993h-2.56v-7.208c0-1.549.407-2.626 1.221-3.23.815-.604 1.996-.906 3.545-.906h23.672c.841 0 1.261.407 1.261 1.221 0 .815-.42 1.222-1.261 1.222zm26.391 8.902H68.522c-1.865 0-3.322-.486-4.372-1.457-1.05-.972-1.576-2.377-1.576-4.215 0-3.781 1.983-5.672 5.948-5.672h17.764c3.991 0 5.987 1.891 5.987 5.672 0 1.865-.532 3.276-1.595 4.234-1.064.958-2.528 1.438-4.392 1.438zm.039-8.902H68.482c-2.206 0-3.308 1.077-3.308 3.23s1.234 3.23 3.702 3.23h17.095c2.416 0 3.623-1.077 3.623-3.23s-1.089-3.23-3.269-3.23zm36.198 0H98.457c-.761 0-1.26.158-1.497.473-.236.315-.355.88-.355 1.693v6.736h-2.56v-7.208c0-1.549.407-2.626 1.221-3.23.814-.604 1.995-.906 3.545-.906h23.673c.84 0 1.26.407 1.26 1.221 0 .814-.407 1.221-1.221 1.221z"/></g></svg>