<svg xmlns="http://www.w3.org/2000/svg" viewBox="0 0 189.9 28.3"><path fill="none" d="M-17.7-11.5h225.2v51.4H-17.7z"/><path fill="#D13239" d="M0 14.2C0 22 6.3 28.3 14.1 28.3S28.2 22 28.2 14.2 21.9.1 14.1.1 0 6.4 0 14.2"/><path fill="#FFF" d="M8.5 17l5.6-7.3v-4H8.5v5.7H2.8V17h5.7zm10.2-2.8l6.7-8.5h-6.5L8.5 19.3v3.3h5.6v-6.2l4.8 6.2h6.5z"/><path d="M36.1 20.6c-.1-.1-.1-.3 0-.4L38 18c.1-.1.2-.1.4 0 1.1.9 2.6 1.7 4.4 1.7 1.8 0 2.8-.8 2.8-2 0-1-.6-1.6-2.6-1.9l-1-.1c-3.4-.5-5.3-2.1-5.3-5.1 0-3.1 2.3-5.2 6-5.2 2.2 0 4.3.7 5.7 1.8.1.1.2.2 0 .4l-1.5 2.3c-.1.1-.2.1-.3.1-1.3-.8-2.5-1.3-3.9-1.3-1.5 0-2.3.8-2.3 1.8s.7 1.6 2.6 1.9l.9.1c3.5.5 5.3 2.1 5.3 5.1s-2.3 5.3-6.6 5.3c-2.6 0-5.2-1.1-6.5-2.3zm27.5 2c-.2 0-.3-.1-.3-.2l-2.9-10.5-3 10.5c0 .1-.1.2-.3.2h-2.5c-.1 0-.2-.1-.3-.2L49.9 6c0-.1 0-.2.2-.2h3.2c.2 0 .3.1.3.2L56 16.6 59 6c0-.1.1-.2.3-.2h2.2c.1 0 .2.1.3.2l3 10.6L67.1 6c0-.2.1-.2.3-.2h3.2c.2 0 .2.1.2.2l-4.3 16.4c0 .1-.1.2-.3.2h-2.6zM72.3 6c0-.1.1-.2.2-.2h3.2c.2-.1.3 0 .3.2v16.4c0 .1-.1.2-.2.2h-3.2c-.1 0-.2-.1-.2-.2V6zm6 14.6c-.1-.1-.1-.3 0-.4l1.9-2.2c.1-.1.2-.1.4 0 1.1.9 2.6 1.7 4.4 1.7 1.8 0 2.8-.8 2.8-2 0-1-.6-1.6-2.6-1.9l-.9-.1c-3.4-.5-5.3-2.1-5.3-5.1 0-3.1 2.3-5.2 6-5.2 2.2 0 4.3.7 5.7 1.8.1.1.2.2 0 .4l-1.5 2.3c-.2.1-.3.1-.5 0-1.3-.8-2.5-1.3-3.9-1.3-1.5 0-2.3.8-2.3 1.8s.7 1.6 2.6 1.9l.9.1c3.5.5 5.3 2.1 5.3 5.1s-2.3 5.3-6.6 5.3c-2.6.1-5.1-1-6.4-2.2zm14.8 0c-.1-.1-.1-.3 0-.4L95 18c.1-.1.2-.1.4 0 1.1.9 2.6 1.7 4.4 1.7 1.8 0 2.8-.8 2.8-2 0-1-.6-1.6-2.6-1.9l-1-.1c-3.4-.5-5.3-2.1-5.3-5.1 0-3.1 2.3-5.2 6-5.2 2.2 0 4.3.7 5.7 1.8.1.1.2.2 0 .4l-1.5 2.3c-.1.1-.2.1-.3.1-1.3-.8-2.5-1.3-3.9-1.3-1.5 0-2.3.8-2.3 1.8s.7 1.6 2.6 1.9l.9.1c3.5.5 5.3 2.1 5.3 5.1s-2.3 5.3-6.6 5.3c-2.6 0-5.2-1.1-6.5-2.3zM114.6 6c0-.1.1-.2.2-.2h3.2c.1 0 .2.1.2.2v7.3l5.6-7.3c.1-.2.2-.2.4-.2h3.6c.1 0 .2.2.1.3l-5.1 6.4 5.6 9.9c.1.2 0 .3-.1.3h-3.7c-.2 0-.3 0-.4-.2l-3.8-7.1-2.2 2.8v4.3c0 .1-.1.2-.2.2h-3.2c-.1 0-.2-.1-.2-.2V6zm24.8 16.6c-.2 0-.3-.1-.4-.2l-2.9-6.2h-2.3c-.1 0-.1 0-.1.1v6c0 .1-.1.2-.2.2h-3.2c-.1 0-.2-.1-.2-.2V6c0-.1.1-.2.2-.2h6.7c3.5 0 5.7 2.2 5.7 5.2 0 2.2-1.1 3.9-3 4.7l3.3 6.7c.1.1 0 .3-.2.3h-3.4zm-.2-11.6c0-1.3-.9-2.1-2.3-2.1h-3c-.1 0-.1 0-.1.1v3.9c0 .1 0 .1.1.1h3c1.4.1 2.3-.7 2.3-2zm6.3 7.8c-.4-1.2-.5-2.1-.5-4.6 0-2.5.1-3.5.5-4.6.9-2.7 3.2-4.1 6.2-4.1s5.3 1.4 6.2 4.1c.4 1.2.5 2.1.5 4.6 0 2.5-.1 3.5-.5 4.6-.9 2.7-3.2 4.1-6.2 4.1s-5.4-1.4-6.2-4.1zm8.8-1c.2-.6.3-1.4.3-3.6s-.1-3-.3-3.6c-.4-1.2-1.3-1.9-2.7-1.9-1.4 0-2.3.7-2.7 1.9-.2.6-.3 1.4-.3 3.6s.1 3 .3 3.6c.4 1.2 1.3 1.9 2.7 1.9 1.4 0 2.3-.7 2.7-1.9zM160.9 6c0-.1.1-.2.2-.2h3c.2 0 .3.1.4.2l6 10.6h.1V6c0-.1.1-.2.2-.2h2.8c.1 0 .2.1.2.2v16.4c0 .1-.1.2-.2.2h-3c-.2 0-.3-.1-.4-.2l-6-10.6h-.1v10.6c0 .1-.1.2-.2.2h-2.8c-.1 0-.2-.1-.2-.2V6zm16.2 12.8c-.4-1.2-.5-2.1-.5-4.6 0-2.5.1-3.5.5-4.6.9-2.7 3.2-4.1 6.2-4.1s5.3 1.4 6.2 4.1c.4 1.2.5 2.1.5 4.6 0 2.5-.1 3.5-.5 4.6-.9 2.7-3.2 4.1-6.2 4.1s-5.3-1.4-6.2-4.1zm8.8-1c.2-.6.3-1.4.3-3.6s-.1-3-.3-3.6c-.4-1.2-1.3-1.9-2.7-1.9-1.4 0-2.3.7-2.7 1.9-.2.6-.3 1.4-.3 3.6s.1 3 .3 3.6c.4 1.2 1.3 1.9 2.7 1.9 1.5 0 2.4-.7 2.7-1.9z" fill="#55565A"/></svg>